/* XPM */
static char *aiimslogo32x32[] = {
/* columns rows colors chars-per-pixel */
"32 30 256 2 ",
"   c #5B3B18",
".  c #613C10",
"X  c #6F440D",
"o  c #6B4C25",
"O  c #1B1A76",
"+  c #716B5B",
"@  c #4C477A",
"#  c #735C67",
"$  c #63577B",
"%  c #6E586B",
"&  c #776A65",
"*  c #6C6279",
"=  c #796979",
"-  c #757076",
";  c #D33500",
":  c #8F5409",
">  c #B5550D",
",  c #B54A05",
"<  c #9B6617",
"1  c #9E6209",
"2  c #B7680F",
"3  c #A46917",
"4  c #B97112",
"5  c #B4751C",
"6  c #A8670C",
"7  c #855B23",
"8  c #AF5927",
"9  c #9A6523",
"0  c #976B2B",
"q  c #956C2E",
"w  c #AA7429",
"e  c #B77727",
"r  c #AB6934",
"t  c #A87839",
"y  c #B97836",
"u  c #B26C29",
"i  c #C95801",
"p  c #D75805",
"a  c #EA5502",
"s  c #C26C0C",
"d  c #C96506",
"f  c #D26302",
"g  c #D36B0B",
"h  c #D86705",
"j  c #CB7902",
"k  c #D77706",
"l  c #CE6B14",
"z  c #C76617",
"x  c #D16C15",
"c  c #CC7712",
"v  c #D37316",
"b  c #DC7D14",
"n  c #D4741B",
"m  c #DB7C19",
"M  c #D77812",
"N  c #E47504",
"B  c #F47803",
"V  c #E37C12",
"C  c #E56E0D",
"Z  c #C97D2D",
"A  c #D47927",
"S  c #C87F34",
"D  c #D07E30",
"F  c #C56F24",
"G  c #8F5D4F",
"H  c #936851",
"J  c #997A56",
"K  c #927350",
"L  c #A8754B",
"P  c #B06C43",
"I  c #835F65",
"U  c #876A6A",
"Y  c #84756A",
"T  c #887665",
"R  c #987664",
"E  c #81757A",
"W  c #BC832B",
"Q  c #BA893C",
"!  c #B3932B",
"~  c #DC8B02",
"^  c #D78404",
"/  c #D89D09",
"(  c #DC8514",
")  c #DC8C13",
"_  c #D88717",
"`  c #C0801C",
"'  c #E68600",
"]  c #F38503",
"[  c #E39300",
"{  c #E99904",
"}  c #FB9906",
"|  c #EB8C14",
" . c #E3851A",
".. c #E48C1B",
"X. c #E58916",
"o. c #EA931B",
"O. c #EC9A19",
"+. c #E59717",
"@. c #F29817",
"#. c #DCAB1C",
"$. c #DBB31A",
"%. c #DEA70B",
"&. c #E7A803",
"*. c #F9AB0B",
"=. c #F6A104",
"-. c #FFB60C",
";. c #FFB806",
":. c #EAA517",
">. c #F4A314",
",. c #F3A31A",
"<. c #F3AC1A",
"1. c #F8A714",
"2. c #ECB416",
"3. c #FAB314",
"4. c #FEBB1B",
"5. c #F7B616",
"6. c #EBB90E",
"7. c #CA892B",
"8. c #D28A2B",
"9. c #D9872A",
"0. c #CF992D",
"q. c #DA942D",
"w. c #D89727",
"e. c #CA8736",
"r. c #D88A32",
"t. c #CC913D",
"y. c #C89138",
"u. c #D69836",
"i. c #E48A25",
"p. c #E58925",
"a. c #E79825",
"s. c #F39C28",
"d. c #E38C33",
"f. c #E79A35",
"g. c #F29735",
"h. c #DDA52C",
"j. c #D9A727",
"k. c #C3A13D",
"l. c #D8A434",
"z. c #D9BA35",
"x. c #EDA428",
"c. c #F7A726",
"v. c #E7B428",
"b. c #FBB825",
"n. c #E4AD34",
"m. c #E2A538",
"M. c #E8B533",
"N. c #F7BD38",
"B. c #F1A335",
"V. c #FFC304",
"C. c #FFD00F",
"Z. c #ECC31B",
"A. c #F9CA19",
"S. c #FFD513",
"D. c #FAC62B",
"F. c #FFD926",
"G. c #E8C339",
"H. c #FED432",
"J. c #FDD33B",
"K. c #F8D93A",
"L. c #F6CF34",
"P. c #FFE837",
"I. c #FFE62B",
"U. c #9F904D",
"Y. c #9A8657",
"T. c #95804D",
"R. c #B98B46",
"E. c #A8895E",
"W. c #B59555",
"Q. c #B1904C",
"!. c #958977",
"~. c #9E8C6E",
"^. c #A18E6D",
"/. c #B4A66E",
"(. c #C78846",
"). c #C39244",
"_. c #CB9846",
"`. c #D39848",
"'. c #D39756",
"]. c #C69351",
"[. c #E49D46",
"{. c #E19A58",
"}. c #D7A943",
"|. c #DDB549",
" X c #CAAA52",
".X c #D7AE52",
"XX c #DBB757",
"oX c #CBB145",
"OX c #E6A945",
"+X c #E8AD52",
"@X c #E5B852",
"#X c #F2BC50",
"$X c #E59B63",
"%X c #D7A767",
"&X c #D5AF73",
"*X c #DFC650",
"=X c #FBC946",
"-X c #FCDE49",
";X c #F6C955",
":X c #F8DA5A",
">X c #E8CB55",
",X c #FFE452",
"<X c #E9D869",
"1X c #F8D966",
"2X c #E7CA7A",
"3X c #E7D173",
"4X c #F5DA7A",
"5X c #FBEF78",
"6X c #353A98",
"7X c #30328A",
"8X c #334099",
"9X c #524E88",
"0X c #4C518C",
"qX c #545385",
"wX c #5A578E",
"eX c #444A91",
"rX c #49559B",
"tX c #465396",
"yX c #565E97",
"uX c #40438C",
"iX c #605E85",
"pX c #6A6689",
"aX c #766D84",
"sX c #6C6D9F",
"dX c #8B8599",
"fX c #A89D8F",
"gX c #B1AC96",
"hX c #9396A4",
"jX c #95A1B8",
"kX c #B2B0A1",
"lX c #C1B194",
"zX c #D6C48C",
"xX c #E6D385",
"cX c #F8DC86",
"vX c #EBDC93",
"bX c #F7E886",
"nX c #FFF987",
"mX c #FFEF91",
"MX c #FFFA9A",
"NX c #EEE690",
"BX c #D1C3AD",
"VX c #DFE0B9",
"CX c #F1E7A6",
"ZX c #FFFAA5",
"AX c #F7EAB6",
"SX c #F9F6B8",
"DX c #EBE9BB",
"FX c #9BA3C1",
"GX c #AFB6C7",
"HX c #CBD4D2",
"JX c #DCEADE",
"KX c #E6EBCB",
"LX c #FCFBC9",
"PX c #FFFFD8",
"IX c #FFFFE5",
"UX c None",
/* pixels */
"UXUXUXUXUXUXUXUXUXUXUXUXUXUX%X'.'.'.&XUXUXUXUXUXUXUXUXUXUXUXUXUX",
"UXUXUXUXUXUXUXUXUXUX.Xh.a.m.y.+X#XOXf.o.s.OXUXUXUXUXUXUXUXUXUXUX",
"UXUXUXUXUXUXUXUX0.+.@XzXVXKXIXHXFXGXKXkX^.N.=.h.UXUXUXUXUXUXUXUX",
"UXUXUXUXUXUX%Xj 1XLXFXeX0XdXLXdX@ pX0XuX6XhX<XC.~ %XUXUXUXUXUXUX",
"UXUXUXUXUXt.j SXJXsXwXdXBXAXZXMXMXnXfX&X!.6XtX/.D.f Z UXUXUXUXUX",
"UXUXUXUXe.^ PXGXO dXAXZXmX3XXX X|. X=XI.L.XXT 7XT S.f F UXUXUXUX",
"UXUXUX(.c SXAXlXgXMX4X X+ ! Q.Y.! J T T.0.V.S.l.y.n.h.f t.UXUXUX",
"UXUXUXi mXhXaXnX5X|.$.Y.U.Z.5.*X=X,.y.W.+ t } -.-.& qX9.h UXUXUX",
"UXUXl =XkX7XzX,X0.%.S.P.H.n.N.n.).B.s.a.`.y i ) } q.0XR ] ~ UXUX",
"UXUXk ^.uX!.I.0.$.H.N.l.5 < `.`.0 `.e 3 Z r.A D f.} (.rXr N UXUX",
"UXq.5.- iXJ.2.j.1XR.9 : 6 4 4 W W 5 4 2 1 9 t ].[.X.B * $ j v.UX",
"UX{ D.iXT C._ :.c.m.u.u.0 . . < 3 X   7 7.D 7.9. .9.N y tX8 :.UX",
"UX{ <.).l.>._ ,.| | | g.t o . 5 ` X 7 Q r.p. .V ( f.n x r > u.LX",
"UX&.V a 3.)  .o. .m x g n (.y.5 7 9 8.9.( V  .X.| B.D g ; ; R.LX",
"2X' X.B >._ n m x x l l f d.r y y.y 8.| ( ..o.O.@.v.D g p p e DX",
"&XN Q K O.m l x z x x v g d.R.e w w q.| o.O.O.@.>.b.p.x E t c vX",
"UXh L * ..b z M b x v n M f.t W y.W w.@.O.,.,.5.*.N.o.F rXL k cX",
"UXi y U M M z l M m m m V s.Q.0 w y c.>.,.<.4.) :.=Xo.S aXF ' cX",
"UXf z H y C n l > )  . . .s.y.q w 0.b.1.<.4.<., v.;X} H % X.~ UX",
"UX8.p G tXn h ( 2 c ,.o.o.=.m.t w w.3.<.5.F.c s :Xc.| 0XJ { :.UX",
"UXUXf 8 9XH N v ) 2 ( 1.,.1.#XT.t n.4.D.F.a.d >X;X} W.yXq.[ 1XUX",
"UXUX+.f P eXu B X._ s ( ,.4.H.M.j.K.P.L.( 4 @X1X} R.pX_.{ #.UXUX",
"UXUXUX~ h I # i.] | ) c +.V C C c.a.f.@X).|.;X3.V.Y & =./ bXUXUX",
"UXUXUX1X^ B R rX(.@.} <.,.p.d.[.+X{.$XbX5XD.;.7.T }.V./ <XUXUXUX",
"UXUXUXUXbX0.N R yXR q.>.-.A.H.-X,X:X-XA.;.#.W.* Y 2.%.<XUXUXUXUX",
"UXUXUXUXUXCX}.' a.R $ J (.q.>.>.*.*.<.Q J 0X- G.V.$.3XUXUXUXUXUX",
"UXUXUXUXUXUXAXh.{ @.l.Y.& qXE.Q.% W.Y 8X!.oXZ.Z.z.NXUXUXUXUXUXUX",
"UXUXUXUXUXUXUXUXM.~ { :.2.k.}.k.E.G.z.z.Z.A.z.3XUXUXUXUXUXUXUXUX",
"UXUXUXUXUXUXUXUXUXUXM.{ &.&.&.6.A.$.$.L.*XxXUXUXUXUXUXUXUXUXUXUX",
"UXUXUXUXUXUXUXUXUXUXUXUXUXcX3X2X3XxXCXUXUXUXUXUXUXUXUXUXUXUXUXUX"
};
